<?xml version="1.0" encoding="UTF-8"?>
<svg width="483px" height="122px" viewBox="0 0 483 122" version="1.1" xmlns="http://www.w3.org/2000/svg" xmlns:xlink="http://www.w3.org/1999/xlink">
    <!-- Generator: Sketch 55 (78076) - https://sketchapp.com -->
    <title>Group 14</title>
    <desc>Created with Sketch.</desc>
    <g id="Page-2" stroke="none" stroke-width="1" fill="none" fill-rule="evenodd">
        <g id="Presentation1-Copy" transform="translate(-474.000000, -12240.000000)">
            <g id="Group-14" transform="translate(474.000000, 12195.000000)">
                <g id="Group-8" transform="translate(0.000000, 45.000000)">
                    <path d="M19.2545171,66.5667226 L57.2898648,66.4922894 C60.603567,66.4858047 63.2951102,69.1668341 63.301595,72.4805363 C63.3016103,72.488364 63.3016103,72.4961918 63.301595,72.5040196 L63.3000785,73.2789507 C63.2936117,76.5834857 60.6163667,79.2607307 57.3118316,79.2671975 L19.2764839,79.3416307 C15.9627817,79.3481154 13.2712385,76.667086 13.2647537,73.3533838 C13.2647384,73.3455561 13.2647384,73.3377283 13.2647537,73.3299005 L13.2662702,72.5549694 C13.272737,69.2504344 15.949982,66.5731894 19.2545171,66.5667226 Z" id="Rectangle-Copy-30" fill="#2F2F41" transform="translate(38.283174, 72.916960) rotate(-225.000000) translate(-38.283174, -72.916960) "></path>
                    <rect id="Rectangle-Copy-29" fill="#FF7063" x="52" y="38" width="50" height="13" rx="6"></rect>
                    <path d="M39,19 L77,19 C80.3137085,19 83,21.6862915 83,25 L83,26 C83,29.3137085 80.3137085,32 77,32 L39,32 C35.6862915,32 33,29.3137085 33,26 L33,25 C33,21.6862915 35.6862915,19 39,19 Z" id="Rectangle-Copy-27" fill="#FF7063" transform="translate(58.000000, 25.500000) rotate(-90.000000) translate(-58.000000, -25.500000) "></path>
                    <rect id="Rectangle-Copy-26" fill="#2F2F41" x="0" y="38" width="39" height="13" rx="6"></rect>
                    <path d="M45.6566877,66.4922894 L83.6920355,66.5667226 C86.9965705,66.5731894 89.6738155,69.2504344 89.6802823,72.5549694 L89.6817988,73.3299005 C89.6882835,76.6436027 87.0072541,79.3351459 83.6935519,79.3416307 C83.6857242,79.341646 83.6778964,79.341646 83.6700686,79.3416307 L45.6347209,79.2671975 C42.3301858,79.2607307 39.6529408,76.5834857 39.646474,73.2789507 L39.6449575,72.5040196 C39.6384728,69.1903174 42.3195022,66.4987742 45.6332044,66.4922894 C45.6410322,66.4922741 45.64886,66.4922741 45.6566877,66.4922894 Z" id="Rectangle-Copy-25" fill="#2F2F41" transform="translate(64.663378, 72.916960) rotate(-315.000000) translate(-64.663378, -72.916960) "></path>
                </g>
                <text id="Lykke" font-family="ProximaSoft-Regular, Proxima Soft" font-size="140" font-weight="normal" letter-spacing="-0.1538462" fill="#2F2F41">
                    <tspan x="138" y="139">Lykke</tspan>
                </text>
            </g>
        </g>
    </g>
</svg>